<svg id="visual" viewBox="0 0 900 600" width="900" height="600" xmlns="http://www.w3.org/2000/svg" xmlns:xlink="http://www.w3.org/1999/xlink" version="1.1"><path d="M0 169L64 241L129 265L193 241L257 103L321 157L386 163L450 253L514 271L579 133L643 115L707 127L771 175L836 133L900 115L900 0L836 0L771 0L707 0L643 0L579 0L514 0L450 0L386 0L321 0L257 0L193 0L129 0L64 0L0 0Z" fill="#00cc8e"></path><path d="M0 259L64 349L129 391L193 391L257 241L321 295L386 235L450 349L514 361L579 307L643 289L707 235L771 241L836 199L900 259L900 113L836 131L771 173L707 125L643 113L579 131L514 269L450 251L386 161L321 155L257 101L193 239L129 263L64 239L0 167Z" fill="#00b388"></path><path d="M0 493L64 541L129 547L193 469L257 505L321 511L386 523L450 493L514 487L579 553L643 541L707 457L771 529L836 469L900 475L900 257L836 197L771 239L707 233L643 287L579 305L514 359L450 347L386 233L321 293L257 239L193 389L129 389L64 347L0 257Z" fill="#009b7f"></path><path d="M0 601L64 601L129 601L193 601L257 601L321 601L386 601L450 601L514 601L579 601L643 601L707 601L771 601L836 601L900 601L900 473L836 467L771 527L707 455L643 539L579 551L514 485L450 491L386 521L321 509L257 503L193 467L129 545L64 539L0 491Z" fill="#038373"></path></svg>